<?xml version="1.0" encoding="UTF-8"?>
<svg xmlns="http://www.w3.org/2000/svg" viewBox="0 0 1000.4 1000.22">
  <defs>
    <style>
      .cls-1 {
        fill: #fff;
      }

      .cls-2 {
        fill: #4b4b4b;
      }

      .cls-3 {
        fill: #fbec9b;
      }

      .cls-4 {
        fill: #3f80ff;
      }
    </style>
  </defs>
  <g id="Layer_3" data-name="Layer 3">
    <rect class="cls-3" y=".22" width="1000" height="1000"/>
  </g>
  <g id="Layer_2" data-name="Layer 2">
    <path class="cls-2" d="M509.26,321.28c44.61,0,86.54,17.37,118.09,48.91,31.54,31.54,48.91,73.48,48.91,118.09s-17.37,86.54-48.91,118.09-73.48,48.91-118.09,48.91-86.54-17.37-118.09-48.91c-31.54-31.54-48.91-73.48-48.91-118.09s17.37-86.54,48.91-118.09c31.54-31.54,73.48-48.91,118.09-48.91m0-33c-110.46,0-200,89.54-200,200s89.54,200,200,200,200-89.54,200-200-89.54-200-200-200h0Z"/>
    <path class="cls-2" d="M240.78,460.78H71.91c-14.81,0-26.81,12-26.81,26.81h0c0,14.81,12,26.81,26.81,26.81H240.78c14.81,0,26.81-12,26.81-26.81s-12-26.81-26.81-26.81h0Z"/>
    <path class="cls-2" d="M946.35,461h-168.88c-14.81,0-26.81,12-26.81,26.81s12,26.81,26.81,26.81h168.88c14.81,0,26.81-12,26.81-26.81s-12-26.81-26.81-26.81h0Z"/>
    <path class="cls-2" d="M508.91,25.56c-14.81,0-26.81,12-26.81,26.81V221.25c0,14.81,12,26.81,26.81,26.81s26.81-12,26.81-26.81V52.38c0-14.81-12-26.81-26.81-26.81h0Z"/>
    <path class="cls-2" d="M508.8,729.35c-14.81,0-26.81,12-26.81,26.81v168.88c0,14.81,12,26.81,26.81,26.81s26.81-12,26.81-26.81v-168.88c0-14.81-12-26.81-26.81-26.81h0Z"/>
    <path class="cls-2" d="M810.15,163.66c-3.31,0-6.31,1.05-8.5,3.24l-63.76,63.76c-5.59,5.59-3.77,16.47,4.06,24.3,4.76,4.76,10.66,7.3,15.8,7.3,3.31,0,6.31-1.05,8.5-3.24l63.76-63.76c5.59-5.59,3.77-16.47-4.06-24.3-4.76-4.76-10.66-7.3-15.8-7.3h0Z"/>
    <path class="cls-2" d="M250.02,724.57c-3.79,0-7.31,1.26-9.91,3.86l-70.21,70.21c-6.16,6.16-4.8,17.5,3.04,25.33,4.53,4.53,10.23,6.89,15.42,6.89,3.79,0,7.31-1.26,9.91-3.86l70.21-70.21c6.16-6.16,4.8-17.5-3.04-25.33-4.53-4.53-10.23-6.89-15.42-6.89h0Z"/>
    <path class="cls-2" d="M199,154.06c-5.14,0-11.04,2.54-15.8,7.3-7.83,7.83-9.65,18.71-4.06,24.3l63.76,63.76c2.19,2.19,5.19,3.24,8.5,3.24,5.14,0,11.04-2.54,15.8-7.3,7.83-7.83,9.65-18.71,4.06-24.3l-63.76-63.76c-2.19-2.19-5.19-3.24-8.5-3.24h0Z"/>
    <path class="cls-2" d="M759.12,714.98c-5.19,0-10.89,2.36-15.42,6.89h0c-7.83,7.83-9.19,19.17-3.04,25.33l70.21,70.21c2.6,2.6,6.12,3.86,9.91,3.86,5.19,0,10.89-2.36,15.42-6.89,7.83-7.83,9.19-19.17,3.04-25.33l-70.21-70.21c-2.6-2.6-6.12-3.86-9.91-3.86h0Z"/>
  </g>
  <g id="Layer_1" data-name="Layer 1">
    <path class="cls-4" d="M536.5,295.72c44.61,0,86.54,17.37,118.09,48.91,31.54,31.54,48.91,73.48,48.91,118.09s-17.37,86.54-48.91,118.09-73.48,48.91-118.09,48.91-86.54-17.37-118.09-48.91c-31.54-31.54-48.91-73.48-48.91-118.09s17.37-86.54,48.91-118.09c31.54-31.54,73.48-48.91,118.09-48.91m0-33c-110.46,0-200,89.54-200,200s89.54,200,200,200,200-89.54,200-200-89.54-200-200-200h0Z"/>
    <g>
      <rect class="cls-1" x="72.33" y="435.22" width="222.5" height="53.63" rx="26.81" ry="26.81"/>
      <path class="cls-4" d="M268.02,435.22H99.14c-14.81,0-26.81,12-26.81,26.81s12,26.81,26.81,26.81h168.88c14.81,0,26.81-12,26.81-26.81h0c0-14.81-12-26.81-26.81-26.81h0Z"/>
    </g>
    <g>
      <rect class="cls-1" x="777.9" y="435.44" width="222.5" height="53.63" rx="26.81" ry="26.81"/>
      <path class="cls-4" d="M973.59,435.44h-168.88c-14.81,0-26.81,12-26.81,26.81s12,26.81,26.81,26.81h168.88c14.81,0,26.81-12,26.81-26.81s-12-26.81-26.81-26.81h0Z"/>
    </g>
    <g>
      <rect class="cls-1" x="509.34" y="0" width="53.63" height="222.5" rx="26.81" ry="26.81"/>
      <path class="cls-4" d="M536.15,0C521.34,0,509.34,12,509.34,26.81V195.69c0,14.81,12,26.81,26.81,26.81s26.81-12,26.81-26.81V26.81C562.96,12,550.96,0,536.15,0h0Z"/>
    </g>
    <g>
      <rect class="cls-1" x="509.23" y="703.78" width="53.63" height="222.5" rx="26.81" ry="26.81"/>
      <path class="cls-4" d="M536.04,703.78c-14.81,0-26.81,12-26.81,26.81v168.88c0,14.81,12,26.81,26.81,26.81s26.81-12,26.81-26.81v-168.88c0-14.81-12-26.81-26.81-26.81h0Z"/>
    </g>
    <g>
      <path class="cls-1" d="M769.18,229.4h0c-7.83-7.83-9.65-18.71-4.06-24.3l63.76-63.76c5.59-5.59,16.47-3.77,24.3,4.06h0c7.83,7.83,9.65,18.71,4.06,24.3l-63.76,63.76c-5.59,5.59-16.47,3.77-24.3-4.06Z"/>
      <path class="cls-4" d="M837.38,138.1c-3.31,0-6.31,1.05-8.5,3.24l-63.76,63.76c-5.59,5.59-3.77,16.47,4.06,24.3,4.76,4.76,10.66,7.3,15.8,7.3,3.31,0,6.31-1.05,8.5-3.24l63.76-63.76c5.59-5.59,3.77-16.47-4.06-24.3-4.76-4.76-10.66-7.3-15.8-7.3h0Z"/>
    </g>
    <g>
      <path class="cls-1" d="M200.18,798.4h0c-7.83-7.83-9.19-19.17-3.04-25.33l70.21-70.21c6.16-6.16,17.5-4.8,25.33,3.04h0c7.83,7.83,9.19,19.17,3.04,25.33l-70.21,70.21c-6.16,6.16-17.5,4.8-25.33-3.04Z"/>
      <path class="cls-4" d="M277.26,699.01c-3.79,0-7.31,1.26-9.91,3.86l-70.21,70.21c-6.16,6.16-4.8,17.5,3.04,25.33,4.53,4.53,10.23,6.89,15.42,6.89,3.79,0,7.31-1.26,9.91-3.86l70.21-70.21c6.16-6.16,4.8-17.5-3.04-25.33-4.53-4.53-10.23-6.89-15.42-6.89h0Z"/>
    </g>
    <g>
      <path class="cls-1" d="M294.43,219.81h0c-7.83,7.83-18.71,9.65-24.3,4.06l-63.75-63.76c-5.59-5.59-3.77-16.47,4.06-24.3h0c7.83-7.83,18.71-9.65,24.3-4.06l63.75,63.76c5.59,5.59,3.77,16.47-4.06,24.3Z"/>
      <path class="cls-4" d="M226.23,128.5c-5.14,0-11.04,2.54-15.8,7.3h0c-7.83,7.83-9.65,18.71-4.06,24.3l63.75,63.76c2.19,2.19,5.19,3.24,8.5,3.24,5.14,0,11.04-2.54,15.8-7.3,7.83-7.83,9.65-18.71,4.06-24.3l-63.76-63.76c-2.19-2.19-5.19-3.24-8.5-3.24h0Z"/>
    </g>
    <g>
      <path class="cls-1" d="M863.43,788.81h0c-7.83,7.83-19.17,9.19-25.33,3.04l-70.21-70.21c-6.16-6.16-4.8-17.5,3.04-25.33h0c7.83-7.83,19.17-9.19,25.33-3.04l70.21,70.21c6.16,6.16,4.8,17.5-3.04,25.33Z"/>
      <path class="cls-4" d="M786.35,689.41c-5.19,0-10.89,2.36-15.42,6.89-7.83,7.83-9.19,19.17-3.04,25.33l70.21,70.21c2.6,2.6,6.12,3.86,9.91,3.86,5.19,0,10.89-2.36,15.42-6.89h0c7.83-7.83,9.19-19.17,3.04-25.33l-70.21-70.21c-2.6-2.6-6.12-3.86-9.91-3.86h0Z"/>
    </g>
  </g>
</svg>